<?xml version="1.0" standalone="no"?>
<!DOCTYPE svg PUBLIC "-//W3C//DTD SVG 20010904//EN"
 "http://www.w3.org/TR/2001/REC-SVG-20010904/DTD/svg10.dtd">
<svg version="1.0" xmlns="http://www.w3.org/2000/svg"
 width="512.000000pt" height="512.000000pt" viewBox="0 0 512.000000 512.000000"
 preserveAspectRatio="xMidYMid meet">
<metadata>
Created by potrace 1.11, written by Peter Selinger 2001-2013
</metadata>
<g transform="translate(0.000000,512.000000) scale(0.100000,-0.100000)"
fill="#000000" stroke="none">
<path d="M1967 3593 c-4 -3 -7 -397 -7 -875 l0 -868 -410 0 -409 0 -248 -251
c-136 -138 -249 -254 -251 -259 -2 -5 12 -12 30 -15 18 -3 382 -5 808 -3 l775
3 50 23 c89 41 157 125 172 212 4 25 6 49 5 54 -2 5 0 16 3 24 3 9 16 -7 35
-45 40 -79 130 -164 217 -206 l68 -32 665 -3 c420 -1 671 2 680 8 12 8 -36 60
-240 265 l-255 255 -322 2 -323 3 0 589 c-1 324 1 590 3 592 2 2 149 4 328 4
l325 1 254 254 c216 217 251 255 234 262 -10 4 -318 8 -684 8 l-665 0 -70 -34
c-85 -42 -181 -134 -216 -208 -13 -29 -27 -52 -31 -53 -5 0 -8 68 -8 150 l0
150 -253 0 c-140 0 -257 -3 -260 -7z"/>
</g>
</svg>
